<svg id="svg" xmlns="http://www.w3.org/2000/svg" xmlns:xlink="http://www.w3.org/1999/xlink" width="400" height="400" viewBox="0, 0, 400,400"><g id="svgg"><path id="path0" d="M 0 6 M 275.948 2.472 C 274.144 7.174 275.192 22.7 278.049 33.594 C 279.626 39.609 280.687 44.778 280.406 45.079 C 279.759 45.771 262.854 28.998 257.477 22.329 C 252.764 16.484 239.714 7.813 235.632 7.813 C 230.659 7.812 232.593 12.115 241.243 20.296 C 245.88 24.681 250.033 29.643 250.472 31.322 C 251.432 34.994 252.176 34.959 241.092 31.761 C 221.164 26.011 204.807 27.486 189.453 36.417 C 181.054 41.303 182.52 45.565 191.655 42.816 C 195.658 41.611 204.272 40.675 210.795 40.736 L 222.656 40.848 L 213.195 43.557 C 197.875 47.945 184.899 59.534 172.553 79.857 C 165.837 90.914 166.977 95.884 174.599 88.774 C 183.998 80.007 185.622 80.273 184.008 90.313 C 179.709 117.049 185.641 148.427 196.924 158.638 C 199.634 161.091 199.55 161.384 194.941 165.502 C 188.071 171.64 190.443 174.074 199.51 170.188 C 203.487 168.483 211.025 166.747 216.261 166.33 L 225.781 165.572 L 216.33 170.073 C 204.582 175.669 193.773 187.409 184.71 204.418 C 175.239 222.193 175.84 226.459 186.374 216.228 C 193.078 209.716 193.18 209.843 189.267 219.864 C 182.933 236.085 183.698 256.258 191.273 272.804 C 195.479 281.992 195.377 282.004 183.594 273.656 C 153.676 252.46 140.288 219.76 148.319 187.5 L 149.68 182.031 L 149.84 189.453 C 149.928 193.535 150.742 196.875 151.649 196.875 C 154.559 196.875 161.223 179.811 162.103 170.106 C 162.614 164.462 163.454 161.516 164.205 162.731 C 166.076 165.758 167.539 163.379 168.902 155.093 C 171.873 137.041 169.259 120.56 162.206 112.88 C 159.942 110.414 159.468 109.217 160.938 109.671 C 162.227 110.069 165.261 113.33 167.681 116.916 C 175.554 128.583 177.85 123.018 171.073 108.694 C 166.645 99.333 156.393 86.996 149.28 82.468 C 146.295 80.568 145.692 79.738 147.656 80.234 C 176.447 87.494 159.97 71.631 130.003 63.239 L 120.163 60.484 L 124.061 56.414 C 128.677 51.595 132.812 42.311 132.812 36.769 C 132.813 31.494 131.305 31.776 125.057 38.222 C 116.764 46.779 105.647 48.465 92.668 43.135 C 81.436 38.523 75.403 38.027 71.002 41.357 C 66.552 44.723 60.783 44.251 52.494 39.844 C 38.631 32.473 25.817 41.428 26.881 57.742 L 27.344 64.844 L 35.612 65.067 C 46.037 65.348 53.37 70.156 64.274 83.86 C 73.653 95.646 77.888 96.606 86.63 88.931 C 93.065 83.281 97.4 83.585 109.198 90.512 C 125.414 100.035 129.406 120.904 121.025 152.344 C 113.629 180.086 112.309 188.914 112.808 207.296 C 113.068 216.895 113.229 224.629 113.165 224.483 C 113.102 224.338 110.786 220.467 108.019 215.881 C 105.252 211.296 103.649 207.952 104.456 208.45 C 108.688 211.066 106.832 204.145 101.848 198.724 C 95.216 191.512 84.778 185.777 75.781 184.403 L 69.531 183.449 L 77.734 179.198 C 90.874 172.389 86.36 167.096 71.718 172.143 C 65.233 174.378 50.07 185.315 49.816 187.94 C 49.715 188.987 49.065 186.463 48.37 182.332 C 46.875 173.431 45.169 171.1 37.16 167.014 C 27.889 162.284 24.772 166.065 32.238 172.985 C 38.332 178.633 32.994 206.778 24.877 211.795 C 21.191 214.073 17.187 225.298 17.187 233.356 C 17.187 240.492 16.321 243.097 11.719 249.787 C 5.349 259.048 5.026 262.598 9.791 270.986 C 15.8 281.562 23.969 282.077 25.583 271.981 C 26.779 264.505 36.527 253.576 46.432 248.607 C 55.085 244.266 57.143 240.391 54.852 232.746 C 52.738 225.69 53.87 222.109 58.807 220.231 C 73.013 214.83 79.24 238.334 69.592 260.938 C 56.916 290.632 68.099 330.396 94.367 349.034 L 102.015 354.461 L 96.195 355.553 C 88.348 357.025 87.418 360.352 93.518 365.126 C 98.759 369.228 99.855 372.992 96.216 374.388 C 93.083 375.59 87.797 372.548 80.04 365.079 C 66.899 352.428 48.183 361.043 43.878 381.724 L 42.966 386.104 L 35.315 382.036 C 26.742 377.477 23.438 377.827 23.438 383.294 C 23.438 387.346 17.998 390.758 12.036 390.444 C 9.258 390.297 9.139 390.121 11.417 389.531 C 15.78 388.4 13.913 383.67 8.877 383.09 C 2.545 382.362 0 385.249 0 393.16 L 0 400 L 197.414 400 C 422.593 400 400 401.608 400 385.586 C 400 373.903 393.245 367.188 381.494 367.188 C 371.117 367.187 368.211 369.667 368.992 377.852 C 369.334 381.44 369.054 384.375 368.369 384.375 C 366.073 384.375 340.872 371.976 339.869 370.353 C 338.157 367.583 330.822 368.607 327.06 372.142 C 322.458 376.465 320.63 374.79 324.126 369.454 C 327.591 364.166 326.264 360.328 321.492 361.833 C 318.688 362.717 319.352 361.441 324.743 355.581 C 342.237 336.566 346.587 311.276 336.039 289.908 C 326.093 269.759 328.033 253.967 340.329 254.989 L 346.094 255.469 L 346.154 263.842 C 346.215 272.306 348.93 276.562 354.267 276.562 C 360.744 276.563 376.519 289.071 376.586 294.261 C 376.7 302.96 387.992 300.199 390.592 290.836 C 393.078 281.889 392.588 279.857 385.938 271.504 C 381.998 266.556 379.688 262.035 379.688 259.273 C 379.688 252.699 377.502 248.151 370.405 239.951 C 357.397 224.921 354.396 212.934 361.79 205.54 C 363.977 203.352 366.278 201.563 366.903 201.563 C 370.429 201.563 373.732 190.632 372.643 182.569 C 370.931 169.895 366.992 164.216 359.843 164.112 C 348.162 163.943 340.603 160.687 335.847 153.775 C 330.069 145.376 324.275 142.194 312.715 141.067 C 297.273 139.563 281.783 129.101 279.672 118.75 C 278.347 112.251 274.285 113.941 273.752 121.214 C 273.373 126.379 274.34 129.153 278.871 135.885 L 284.457 144.186 L 277.407 143.22 C 260.851 140.95 246.99 133.006 239.523 121.506 C 218.456 89.059 227.238 60.844 255.622 69.782 C 270.405 74.437 276.563 81.445 276.563 93.611 C 276.563 108.618 278.859 111.685 291.332 113.34 C 310.03 115.82 325.724 125.529 331.49 138.185 C 337.227 150.776 350 135.762 350 116.428 C 350 110.923 349.878 110.773 333.958 96.743 C 329.862 93.132 326.1 88.345 325.598 86.105 C 322.578 72.609 321.123 69.312 315.887 64.093 C 312.735 60.952 307.881 56.807 305.1 54.881 C 295.427 48.185 282.526 21.119 282.478 7.422 C 282.451 -0.234 278.218 -3.443 275.948 2.472 M 83.632 56.313 C 84.291 57.379 83.113 57.572 80.209 56.874 C 74.222 55.436 73.656 54.688 78.554 54.688 C 80.795 54.688 83.08 55.419 83.632 56.313 M 306.551 77.734 C 311.291 83.254 311.258 84.706 306.473 81.168 C 301.716 77.651 300.173 75 302.883 75 C 303.609 75 305.26 76.23 306.551 77.734 M 208.018 156.639 C 203.303 159.772 201.404 157.159 199.184 144.482 L 198.098 138.281 L 205.114 146.094 L 212.131 153.906 L 208.018 156.639 M 322.517 161.424 C 324.982 163.226 324.642 163.393 319.69 162.815 C 316.595 162.454 314.063 161.532 314.063 160.767 C 314.063 158.682 319.326 159.091 322.517 161.424 M 294.599 181.592 C 294.832 181.834 296.796 186.048 298.963 190.958 C 304.048 202.481 319.124 204.416 330.391 194.992 C 333.503 192.389 351.311 193.643 356.56 196.835 L 361.633 199.92 L 356.676 201.648 C 351.692 203.385 345.313 213.276 345.313 219.266 C 345.313 221.534 343.954 221.234 335.982 217.21 C 324.85 211.591 312.5 210.587 312.5 215.301 C 312.5 217.316 314.551 218.65 319.81 220.057 L 327.121 222.012 L 317.972 226.561 C 306.01 232.508 294.665 245.29 298.205 248.83 C 299.557 250.182 300.463 250.162 301.875 248.75 C 304.878 245.747 306.992 246.59 304.199 249.677 C 302.804 251.218 299.625 256.969 297.133 262.458 L 292.603 272.437 L 292.786 237.39 C 292.975 201.209 292.628 198.625 285.211 180.928 C 284.227 178.582 292.234 179.148 294.599 181.592 M 252.499 201.953 C 258.499 215.008 258.782 235.384 253.206 252.734 C 248.808 266.417 250.449 266.6 239.561 251.217 C 221.972 226.367 221.819 215.387 238.82 198.098 C 246.435 190.354 247.277 190.591 252.499 201.953 M 112.593 233.984 C 114.673 236.348 118.508 243.906 121.115 250.781 C 127.351 267.224 134.527 277.727 150.628 293.973 C 163.978 307.444 166.297 311.5 165.356 319.733 C 164.191 329.931 119.231 319.392 106.715 305.987 C 99.405 298.157 96.406 282.803 100.052 271.875 C 100.894 269.354 101.034 270.951 100.449 276.378 C 99.301 287.028 102.085 286.772 107.781 275.703 C 112.844 265.866 113.487 243.109 108.938 234.766 C 105.557 228.563 107.463 228.156 112.593 233.984 M 204.26 269.922 C 208.866 277.471 214.623 290.625 213.322 290.625 C 211.105 290.625 201.808 285.242 202.392 284.297 C 202.775 283.678 202.452 281.157 201.676 278.695 C 200.065 273.589 198.358 262.5 199.183 262.5 C 199.485 262.5 201.77 265.84 204.26 269.922 M 301.993 305.946 C 304.081 309.98 307.299 313.975 309.145 314.824 C 321.004 320.275 305.494 335.633 284.001 339.721 C 270.132 342.358 270.807 343.376 277.219 329.498 C 282.644 317.757 287.932 300.009 289.884 286.996 C 290.658 281.831 291.539 280.136 293.13 280.747 C 294.33 281.207 295.405 280.63 295.518 279.464 C 295.631 278.298 296.28 282.129 296.96 287.977 C 297.662 294.015 299.837 301.78 301.993 305.946 M 53.998 383.699 C 48.362 387.859 44.481 386.507 49.522 382.14 C 52.44 379.612 54.429 378.864 55.469 379.901 C 56.51 380.94 56.019 382.207 53.998 383.699 M 388.538 383.489 C 387.008 387.476 384.743 386.278 385.576 381.922 C 386.089 379.237 386.863 378.426 387.911 379.473 C 388.772 380.335 389.055 382.142 388.538 383.489" stroke="none" fill="#000000" fill-rule="evenodd"></path></g></svg>